# xmcd CD database file
#
# Track frame offsets:
#	150
#	1952
#	19045
#	35333
#	54882
#	74852
#	84989
#	94584
#	113044
#	129484
#	146819
#	169657
#	188288
#	206024
#	225734
#	245306
#
# Disc length: 3766 seconds
#
# Revision: 0
# Processed by: cddbd v1.5.1PL0 Copyright (c) Steve Scherf et al.
# Submitted via: CDex 1.51
#
DISCID=c90eb410
DTITLE=The Phenix Country Band - Fly
DYEAR=1900
DGENRE=Country
TTITLE0=Intro
TTITLE1=Pray For The Man
TTITLE2=Over The Skin
TTITLE3=Banks Of The Ohio
TTITLE4=They Don't Give Me Love
TTITLE5=Mister B (part 1)
TTITLE6=Mister B (part 2)
TTITLE7=Feel's Like Home
TTITLE8=You're Not There
TTITLE9=Like A Long Train Running
TTITLE10=One Quarter Mile
TTITLE11=Stand By Your Man
TTITLE12=He Thinks He'll Keep Her
TTITLE13=Over Your Dreams
TTITLE14=Fly
TTITLE15=Hotel California
EXTD=
EXTT0=
EXTT1=
EXTT2=
EXTT3=
EXTT4=
EXTT5=
EXTT6=
EXTT7=
EXTT8=
EXTT9=
EXTT10=
EXTT11=
EXTT12=
EXTT13=
EXTT14=
EXTT15=
PLAYORDER=
